<?xml version="1.0" standalone="no"?>
<!DOCTYPE svg PUBLIC "-//W3C//DTD SVG 20010904//EN"
 "http://www.w3.org/TR/2001/REC-SVG-20010904/DTD/svg10.dtd">
<svg version="1.0" xmlns="http://www.w3.org/2000/svg"
 width="286.000000pt" height="286.000000pt" viewBox="0 0 286.000000 286.000000"
 preserveAspectRatio="xMidYMid meet">
<metadata>
Created by potrace 1.11, written by Peter Selinger 2001-2013
</metadata>
<g transform="translate(0.000000,286.000000) scale(0.100000,-0.100000)"
fill="#000000" stroke="none">
<path d="M0 1430 l0 -1430 1430 0 1430 0 0 1430 0 1430 -1430 0 -1430 0 0
-1430z m1313 925 c-165 -52 -285 -177 -328 -342 -68 -262 120 -532 393 -565
173 -20 207 -28 269 -59 77 -39 170 -134 206 -211 95 -200 37 -436 -140 -569
-92 -70 -172 -94 -308 -93 -243 2 -465 102 -646 291 -262 274 -328 674 -169
1020 126 274 364 464 660 527 82 18 118 18 63 1z m197 -317 c55 -38 75 -73 75
-133 0 -90 -60 -150 -150 -150 -58 0 -91 18 -129 69 -29 38 -29 124 0 163 34
46 82 73 129 73 27 0 54 -8 75 -22z"/>
<path d="M1360 1111 c-42 -22 -80 -83 -80 -131 0 -73 60 -142 136 -156 25 -5
46 0 81 17 60 30 85 65 90 126 7 89 -61 163 -152 163 -22 0 -56 -8 -75 -19z"/>
</g>
</svg>
