<?xml version="1.0" encoding="UTF-8" standalone="no"?>
<svg
   xmlns:dc="http://purl.org/dc/elements/1.1/"
   xmlns:cc="http://creativecommons.org/ns#"
   xmlns:rdf="http://www.w3.org/1999/02/22-rdf-syntax-ns#"
   xmlns:svg="http://www.w3.org/2000/svg"
   xmlns="http://www.w3.org/2000/svg"
   xmlns:sodipodi="http://sodipodi.sourceforge.net/DTD/sodipodi-0.dtd"
   xmlns:inkscape="http://www.inkscape.org/namespaces/inkscape"
   enable-background="new 0 0 64 88.8"
   version="1.1"
   viewBox="0 0 67.169999 82.266095"
   xml:space="preserve"
   id="svg241"
   sodipodi:docname="frame.svg"
   width="67.169998"
   height="82.266098"
   inkscape:version="0.92.1 r15371"><metadata
     id="metadata247"><rdf:RDF><cc:Work
         rdf:about=""><dc:format>image/svg+xml</dc:format><dc:type
           rdf:resource="http://purl.org/dc/dcmitype/StillImage" /></cc:Work></rdf:RDF></metadata><defs
     id="defs245"><filter
       style="color-interpolation-filters:sRGB"
       inkscape:label="Drop Shadow"
       id="filter4962"><feFlood
         flood-opacity="0.498039"
         flood-color="rgb(0,0,0)"
         result="flood"
         id="feFlood4952" /><feComposite
         in="flood"
         in2="SourceGraphic"
         operator="in"
         result="composite1"
         id="feComposite4954" /><feGaussianBlur
         in="composite1"
         stdDeviation="1"
         result="blur"
         id="feGaussianBlur4956" /><feOffset
         dx="0.5"
         dy="0.5"
         result="offset"
         id="feOffset4958" /><feComposite
         in="SourceGraphic"
         in2="offset"
         operator="over"
         result="composite2"
         id="feComposite4960" /></filter><filter
       style="color-interpolation-filters:sRGB"
       inkscape:label="Drop Shadow"
       id="filter4986"><feFlood
         flood-opacity="0.498039"
         flood-color="rgb(0,0,0)"
         result="flood"
         id="feFlood4976" /><feComposite
         in="flood"
         in2="SourceGraphic"
         operator="in"
         result="composite1"
         id="feComposite4978" /><feGaussianBlur
         in="composite1"
         stdDeviation="1"
         result="blur"
         id="feGaussianBlur4980" /><feOffset
         dx="0.5"
         dy="0.8"
         result="offset"
         id="feOffset4982" /><feComposite
         in="SourceGraphic"
         in2="offset"
         operator="over"
         result="composite2"
         id="feComposite4984" /></filter></defs><sodipodi:namedview
     pagecolor="#ffffff"
     bordercolor="#666666"
     borderopacity="1"
     objecttolerance="10"
     gridtolerance="10"
     guidetolerance="10"
     inkscape:pageopacity="0"
     inkscape:pageshadow="2"
     inkscape:window-width="1366"
     inkscape:window-height="705"
     id="namedview243"
     showgrid="false"
     inkscape:zoom="4.3299648"
     inkscape:cx="-14.385934"
     inkscape:cy="22.840252"
     inkscape:window-x="1016"
     inkscape:window-y="-8"
     inkscape:window-maximized="1"
     inkscape:current-layer="g239" /><g
     id="g239"
     style="clip-rule:evenodd;display:inline;fill-rule:evenodd"
     transform="translate(3.4700001,-0.025)"><path
       d="m 29.9,3.15 c 0.167,-0.167 0.333,-0.167 0.5,0 0.067,0.067 3.25,2.467 9.55,7.2 6.5,4.867 10.416,7.667 11.75,8.4 0.333,0.2 0.434,0.533 0.3,1 -0.1,0.3 -0.267,0.45 -0.5,0.45 L 51.3,20.15 C 49.3,19.017 42.25,13.85 30.15,4.65 29.383,5.183 28.033,6.233 26.1,7.8 16.8,15.667 12.117,19.633 12.05,19.7 11.917,19.833 11.783,19.867 11.65,19.8 11.483,19.767 11.367,19.667 11.3,19.5 11.1,19.067 11.167,18.717 11.5,18.45 11.567,18.383 16.25,14.4 25.55,6.5 28.283,4.267 29.733,3.15 29.9,3.15 Z"
       id="path2"
       inkscape:connector-curvature="0"
       style="fill:#d8cd98" /><path
       d="M 35.05,6.65 35.2,6.9 c 0.666,0.967 1.45,1.7 2.35,2.2 0.233,0.133 1.134,0.883 2.7,2.25 1.2,1.033 2,1.467 2.4,1.3 L 42.9,12.5 c 3.699,2.767 6.149,4.55 7.35,5.35 0.066,0.5 -0.033,0.983 -0.3,1.45 C 47.116,17.367 40.516,12.484 30.15,4.65 29.383,5.183 28.033,6.233 26.1,7.8 16.8,15.667 12.117,19.633 12.05,19.7 c -0.133,0.133 -0.267,0.167 -0.4,0.1 -0.167,-0.033 -0.283,-0.133 -0.35,-0.3 -0.2,-0.433 -0.133,-0.783 0.2,-1.05 l 7.6,-6.5 c 0.4,0.267 0.917,0.2 1.55,-0.2 0.633,-0.4 1.583,-1.233 2.85,-2.5 1.233,-1.267 2.167,-2.1 2.8,-2.5 0.133,-0.067 1.067,-0.717 2.8,-1.95 0.933,-0.633 1.467,-0.867 1.6,-0.7 0.167,0.2 0.45,0.167 0.85,-0.1 z"
       id="path4"
       inkscape:connector-curvature="0"
       style="fill:#c0b787" /><linearGradient
       id="d"
       x1="23.091"
       x2="28.618999"
       y1="-29.733999"
       y2="-29.733999"
       gradientTransform="matrix(0.0317,0.9995,-0.9995,0.0317,-4.1103e-4,-3.4885e-4)"
       gradientUnits="userSpaceOnUse"><stop
         stop-opacity=".6863"
         offset="0"
         id="stop6" /><stop
         stop-opacity="0"
         offset=".8667"
         id="stop8" /></linearGradient><polygon
       points="56.45,21.65 58.9,74.8 6.15,76.3 3.7,23.15 "
       id="polygon11"
       style="display:inline;fill:#1a1a1a;opacity:1;fill-opacity:0.99497485" /><linearGradient
       id="e"
       x1="75.474998"
       x2="80.050003"
       y1="-30.614"
       y2="-30.614"
       gradientTransform="matrix(0.0164,0.9999,-0.9999,0.0164,2.4265e-4,-3.4995e-4)"
       gradientUnits="userSpaceOnUse"><stop
         stop-opacity=".6863"
         offset="0"
         id="stop13" /><stop
         stop-opacity="0"
         offset="1"
         id="stop15" /></linearGradient><polygon
       points="3.3,88.8 2.25,75.05 60.55,70.55 61.6,84.35 "
       id="polygon18"
       style="display:none;fill:url(#e)" /><path
       d="m 32.85,4.15 c -1.2,1.267 -2.033,2.017 -2.5,2.25 L 29.1,6.8 C 28.833,6.633 28.65,6.334 28.55,5.9 L 28.4,5.3 29.4,5 c 0.767,-0.3 1.383,-0.733 1.85,-1.3 z"
       id="path20"
       inkscape:connector-curvature="0"
       style="fill:#97979c" /><polygon
       points="30.75,4.2 31.25,3.7 32.3,4 "
       id="polygon22"
       style="fill:#76767a" /><path
       d="m 29.45,5.95 c 0.333,-0.067 0.617,-0.2 0.85,-0.4 0.2,-0.133 0.267,-0.367 0.2,-0.7 l -0.1,-0.4 0.15,-0.05 0.1,0.65 c 0.033,0.167 0,0.333 -0.1,0.5 l -0.1,0.3 C 30.283,6.083 29.766,6.35 28.9,6.65 28.733,6.383 28.617,6.133 28.55,5.9 L 28.4,5.3 28.65,5.25 28.7,5.65 c 0.133,0.267 0.383,0.367 0.75,0.3 z"
       id="path24"
       inkscape:connector-curvature="0"
       style="fill:#76767a" /><path
       d="M 30.75,4.2 32.3,4 32.85,4.15 c -1.2,1.267 -2.033,2.017 -2.5,2.25 L 29.1,6.8 28.9,6.65 c 0.867,-0.3 1.383,-0.566 1.55,-0.8 l 0.1,-0.3 c 0.1,-0.167 0.133,-0.333 0.1,-0.5 L 30.55,4.4 Z"
       id="path26"
       inkscape:connector-curvature="0"
       style="fill:#5b5b5e" /><path
       d="m 30.5,4.85 c -0.167,0.267 -0.417,0.467 -0.75,0.6 -0.2,0.1 -0.533,0.117 -1,0.05 l 0.4,-0.05 c 0.167,-0.067 0.617,-0.267 1.35,-0.6 z"
       id="path28"
       inkscape:connector-curvature="0"
       style="fill:#d9d9e0" /><path
       d="m 31.45,0.4 c 0.866,-0.5 1.767,-0.5 2.7,0 0.8,0.467 1.316,1.083 1.55,1.85 0.467,1.4 0.017,2.417 -1.351,3.05 -0.666,0.3 -1.433,0.3 -2.3,0 C 31.282,5.033 30.799,4.683 30.599,4.25 30.232,3.45 30.032,2.883 29.999,2.55 29.967,1.683 30.45,0.967 31.45,0.4 Z"
       id="path30"
       inkscape:connector-curvature="0"
       style="fill:#d9d9e0" /><path
       d="m 31.4,0.65 c 0.734,-0.367 1.534,-0.183 2.4,0.55 0.733,0.633 1.233,1.333 1.5,2.1 0.334,1.067 -0.149,1.9 -1.45,2.5 C 33.316,6.033 32.684,6 31.95,5.7 31.283,5.433 30.867,5.1 30.7,4.7 30.3,3.833 30.083,3.233 30.05,2.9 29.95,1.967 30.4,1.217 31.4,0.65 Z"
       id="path32"
       inkscape:connector-curvature="0"
       style="fill:#7e7e82" /><path
       d="m 31.85,0.65 c 0.7,-0.433 1.45,-0.4 2.25,0.1 0.7,0.467 1.167,1.05 1.4,1.75 0.434,1.333 0.083,2.25 -1.05,2.75 -0.533,0.233 -1.167,0.2 -1.9,-0.1 C 31.883,4.85 31.467,4.5 31.3,4.1 30.967,3.4 30.783,2.883 30.75,2.55 c -0.067,-0.8 0.3,-1.433 1.1,-1.9 z"
       id="path34"
       inkscape:connector-curvature="0"
       style="fill:#ababb0" /><path
       d="M 34.75,4.75 C 34.217,4.883 33.533,4.817 32.7,4.55 31.967,4.283 31.516,3.734 31.35,2.9 c 0.1,0 0.283,0.167 0.55,0.5 0.267,0.3 0.5,0.417 0.7,0.35 -0.3,-0.233 -0.399,-0.433 -0.3,-0.6 l 0.5,0.1 0.65,-0.15 c 0.399,-0.067 0.733,-0.184 1,-0.35 0.366,-0.167 0.467,-0.4 0.3,-0.7 l 0.4,-0.2 0.35,0.65 c 0.267,0.867 0.217,1.533 -0.15,2 z"
       id="path36"
       inkscape:connector-curvature="0"
       style="fill:#9c9ca1" /><path
       d="m 34,1.4 c -0.4,0.133 -0.684,0.25 -0.85,0.35 -0.301,0.3 -0.567,0.467 -0.801,0.5 -0.399,0.033 -0.583,-0.2 -0.55,-0.7 0,-0.5 0.184,-0.8 0.55,-0.9 h 0.25 c 0.167,-0.133 0.45,-0.1 0.851,0.1 0.234,0.067 0.416,0.283 0.55,0.65 z"
       id="path38"
       inkscape:connector-curvature="0"
       style="fill:#bfbfc4" /><radialGradient
       id="f"
       cx="29.35"
       cy="7.0497999"
       r="1.55"
       gradientTransform="matrix(1,0,0,-1,0,14.1)"
       gradientUnits="userSpaceOnUse"><stop
         stop-opacity=".1686"
         offset=".6824"
         id="stop40" /><stop
         stop-opacity=".1686"
         offset=".8706"
         id="stop42" /></radialGradient><path
       d="m 28.55,6.3 c 0.133,0.233 0.333,0.383 0.6,0.45 0.267,0.067 0.533,0.017 0.8,-0.15 h 0.35 c 0,0.233 -0.017,0.367 -0.05,0.4 -0.033,0.1 -0.133,0.233 -0.3,0.4 0,0.133 0.216,0.3 0.65,0.5 C 30.3,8.033 30.067,8.15 29.9,8.25 29.6,8.417 29.517,8.6 29.65,8.8 29.45,8.667 29.3,8.433 29.2,8.1 29.133,7.867 29.05,7.75 28.95,7.75 c -0.167,0.067 -0.333,0.117 -0.5,0.15 0.1,-0.233 0.1,-0.417 0,-0.55 C 28.25,7.117 28.133,6.933 28.1,6.8 28.067,6.533 28.083,6.234 28.15,5.9 28.217,5.5 28.334,5.283 28.5,5.25 c 0.033,0.1 0.017,0.267 -0.05,0.5 -0.033,0.233 0,0.417 0.1,0.55 z"
       id="path45"
       inkscape:connector-curvature="0"
       style="fill:url(#f)" /><path
       d="m 54.25,17.85 0.7,6.05 -22.75,0.35 c -3.967,0.067 -10.1,0.267 -18.4,0.6 L 2.6,25.3 2.25,20.95 6.7,18.25 30.9,17.9 c 7,-0.1 14.784,-0.117 23.35,-0.05 z"
       id="path47"
       inkscape:connector-curvature="0"
       style="fill:#817651" /><path
       d="M 31.95,68.55 C 38.384,68.483 46.3,68.3 55.7,68 L 56.099,74.7 6.5,75.15 1.95,72.6 l 0.2,-4.35 11.3,0.2 c 8.333,0.1 14.5,0.133 18.5,0.1 z"
       id="path49"
       inkscape:connector-curvature="0"
       style="fill:#94895e" /><path
       d="m 54.95,22.95 -22.75,0.3 c -4,0.067 -10.133,0.267 -18.4,0.6 L 2.6,24.3 2.2,19.85 6.65,17.05 30.9,16.7 c 6.966,-0.1 14.75,-0.117 23.35,-0.05 z"
       id="path51"
       inkscape:connector-curvature="0"
       style="fill:#c6b77d" /><path
       d="m 31.95,69.4 c 6.434,-0.067 14.366,-0.25 23.8,-0.551 l 0.4,6.9 L 6.5,76.2 1.95,73.55 l 0.2,-4.5 11.3,0.2 c 8.333,0.134 14.5,0.184 18.5,0.15 z"
       id="path53"
       inkscape:connector-curvature="0"
       style="fill:#c6b77d;filter:url(#filter4986)"
       transform="matrix(0.99887246,0,0,1.0124488,0.03275512,-0.9527421)" /><polygon
       points="10.5,23.9 16.05,23.75 10.5,24 "
       id="polygon55"
       style="fill:#b5a772" /><path
       d="M 48,22.75 51.7,22.2 V 23 l -6,0.05 c 0.833,-0.067 1.6,-0.167 2.3,-0.3 z"
       id="path57"
       inkscape:connector-curvature="0"
       style="fill:#b5a772" /><path
       d="m 43.65,17.35 c -2.733,0.167 -7.4,0.4 -14,0.7 -7.833,0.3 -13.5,0.467 -17,0.5 L 9.25,18.6 9.1,17.95 10.3,17.9 c 0.7,0.067 1.717,0.1 3.05,0.1 1.167,0.067 2.883,0.067 5.15,0 l 10,-0.45 c 4.333,-0.066 7.267,-0.15 8.8,-0.25 1.3,0.034 2.934,0 4.9,-0.1 1.1,-0.067 2.733,-0.167 4.899,-0.3 h 0.551 c -2.133,0.267 -3.466,0.417 -4,0.45 z"
       id="path59"
       inkscape:connector-curvature="0"
       style="fill:#b5a772" /><path
       d="m 42.875,20.6 c -1.518,0.128 -3.218,0.245 -5.1,0.35 1.882,-0.105 3.582,-0.222 5.1,-0.35 z m -6.2,0.4 -3.524,0.25 c 0.633,0.1 1.85,0.117 3.649,0.05 4.9,-0.233 9.851,-0.633 14.851,-1.2 v 0.2 l -2.45,0.2 c -3.2,0.467 -8.533,0.833 -16,1.1 -8.3,0.233 -13.983,0.4 -17.05,0.5 -0.3,-0.067 -0.783,-0.067 -1.45,0 -0.733,0.033 -1.167,0.05 -1.3,0.05 -1.467,-0.066 -2.566,-0.083 -3.3,-0.05 h -0.05 v -0.15 l 5.45,-0.25 c 3.733,-0.167 9.617,-0.35 17.65,-0.55 1.237,-0.048 2.412,-0.098 3.524,-0.15 z m 6.975,-0.45 c 1.781,-0.172 3.281,-0.355 4.5,-0.55 L 51.599,19.55 51.65,20 Z"
       id="path61"
       inkscape:connector-curvature="0"
       style="fill:#b5a772" /><path
       d="m 47.9,74.65 5.1,-0.2 0.05,0.399 c -8.366,0.067 -16.316,0.217 -23.85,0.45 -2.7,0.066 -5.417,0.2 -8.15,0.4 0.434,-0.134 0.784,-0.283 1.05,-0.45 l -0.6,-0.05 c 6.1,-0.4 10.533,-0.617 13.3,-0.65 l 15.95,-0.3 -2.1,0.35 z"
       id="path63"
       inkscape:connector-curvature="0"
       style="fill:#b5a772" /><path
       d="m 31.85,19.15 c 5.534,-0.2 10.583,-0.5 15.15,-0.9 l 3.55,-0.1 c 0.467,0 0.816,-0.017 1.05,-0.05 v 0.4 l -2.9,0.25 c -0.334,0 -4.717,0.267 -13.15,0.8 -7.966,0.5 -13.767,0.767 -17.4,0.8 h -0.7 L 17.7,20.2 c -0.667,-0.067 -1.5,-0.067 -2.5,0 -1.1,0.1 -1.934,0.15 -2.5,0.15 -0.967,0.066 -1.583,0.083 -1.85,0.05 l -1.2,-0.1 -0.1,-0.45 z"
       id="path65"
       inkscape:connector-curvature="0"
       style="fill:#b5a772" /><path
       d="m 45.65,72.4 c 3.233,-0.301 5.666,-0.467 7.3,-0.5 v 0.5 c -2.934,0.199 -5.934,0.483 -9,0.85 -1.934,0.3 -3.384,0.483 -4.351,0.55 -1.533,0.134 -3.8,0.167 -6.8,0.101 3.335,-0.068 7.618,-0.568 12.851,-1.501 z"
       id="path67"
       inkscape:connector-curvature="0"
       style="fill:#b5a772" /><path
       d="M 29.65,72.95 H 28.4 c -0.467,0.033 -0.833,0.083 -1.1,0.149 0.434,0.334 1.133,0.567 2.1,0.7 H 29.35 C 27.317,73.733 24.9,73.516 22.1,73.15 c -1.2,-0.167 -4.2,-0.067 -9,0.3 l -2.75,0.2 -0.05,-0.4 10.4,-0.75 h 0.1 c 1.533,0.033 4.483,0.184 8.85,0.45 z"
       id="path69"
       inkscape:connector-curvature="0"
       style="fill:#b5a772" /><polygon
       points="55.95,72.2 55.65,72.2 55.35,71.75 55.9,71.75 "
       id="polygon71"
       style="fill:#b5a772" /><polygon
       points="55.8,69.95 55.8,70.25 54.3,70.2 54.25,70.1 "
       id="polygon73"
       style="fill:#b5a772" /><path
       d="M 9.95,70.95 17.2,70.8 c -0.833,0.066 -2.083,0.134 -3.75,0.2 -1.534,0.2 -2.684,0.316 -3.45,0.35 z"
       id="path75"
       inkscape:connector-curvature="0"
       style="fill:#b5a772" /><path
       d="M 47.7,71.1 C 41.266,71.534 35.917,71.734 31.65,71.701 29.117,71.668 26.3,71.584 23.2,71.451 20.733,71.385 18.8,71.35 17.4,71.35 l 0.75,-0.05 c 0.233,-0.033 0.733,-0.083 1.5,-0.149 0.733,-0.067 1.267,-0.167 1.6,-0.301 9.433,0.167 15.467,0.233 18.1,0.2 2.101,-0.033 6.184,-0.283 12.25,-0.75 l -2.5,0.351 c -2,0.166 -3.267,0.35 -3.8,0.55 z"
       id="path77"
       inkscape:connector-curvature="0"
       style="fill:#b5a772" /><path
       d="m 25.85,69.75 c 2.7,0 4.717,0.05 6.05,0.15 1.267,0.066 3.167,0.083 5.7,0.05 L 39.65,70 c -1.334,0.1 -2.767,0.15 -4.301,0.15 -5.266,-0.134 -9.233,-0.233 -11.899,-0.301 -4.767,-0.1 -8.567,-0.083 -11.4,0.051 l -0.9,0.05 0.5,-0.25 c 0.367,0.1 0.883,0.133 1.55,0.1 0.8,-0.066 1.316,-0.083 1.55,-0.05 0.733,0.033 1.467,0.033 2.2,0 L 20.7,69.6 c 0.6,-0.033 1.55,-0.033 2.85,0 l -0.35,0.1 c 0.4,0.133 1.283,0.15 2.65,0.05 z"
       id="path79"
       inkscape:connector-curvature="0"
       style="fill:#b5a772" /><path
       d="m 10.8,69.5 c -0.2,0.033 -0.517,0.05 -0.95,0.05 L 9.8,69.25 10.05,69.2 c 0.167,0.166 0.417,0.267 0.75,0.3 z"
       id="path81"
       inkscape:connector-curvature="0"
       style="fill:#b5a772" /><path
       d="m 9.9,70.5 0.1,0.85 c -0.367,0.034 -0.75,0.034 -1.15,0 l 0.1,-0.649 z"
       id="path83"
       inkscape:connector-curvature="0"
       style="fill:#b5a772" /><path
       d="M 10.25,72.85 6.7,72.8 v -0.1 c 1.667,-0.066 2.816,-0.184 3.45,-0.351 z"
       id="path85"
       inkscape:connector-curvature="0"
       style="fill:#b5a772" /><path
       d="m 10.3,73.25 0.3,2 -0.2,-0.05 H 9.95 c -0.133,0 -0.267,-0.05 -0.4,-0.15 -0.333,-0.2 -0.5,-0.783 -0.5,-1.75 z"
       id="path87"
       inkscape:connector-curvature="0"
       style="fill:#b5a772" /><polygon
       points="9.45,69.2 9.8,69.2 9.8,69.25 9.85,69.55 9.5,69.55 "
       id="polygon89"
       style="fill:#b5a772" /><path
       d="M 8.8,24.05 C 8.8,23.484 9.1,23.133 9.7,23 l 0.55,-0.1 0.25,1 V 24 Z"
       id="path91"
       inkscape:connector-curvature="0"
       style="fill:#b5a772" /><path
       d="m 9.8,21.05 0.25,0.9 V 22.1 C 9.783,22.133 9.567,22.15 9.4,22.15 9.133,22.15 8.917,22.1 8.75,22 8.783,21.533 9.133,21.217 9.8,21.05 Z"
       id="path93"
       inkscape:connector-curvature="0"
       style="fill:#b5a772" /><path
       d="m 8.75,19.65 c 0,-0.133 0.017,-0.433 0.05,-0.9 l 0.05,-1.6 0.15,0.4 -0.05,0.1 H 9 l 0.1,0.3 0.55,2.35 -0.5,-0.1 C 8.917,20.067 8.783,19.883 8.75,19.65 Z"
       id="path95"
       inkscape:connector-curvature="0"
       style="fill:#b5a772" /><path
       d="m 54.15,16.65 h 0.1 l 0.05,0.75 -2.7,-0.15 h -0.05 v -0.5 c 1.5,0 2.367,-0.033 2.6,-0.1 z"
       id="path97"
       inkscape:connector-curvature="0"
       style="fill:#b5a772" /><polygon
       points="54.95,22.95 51.7,23 51.65,20.1 54.55,19.8 51.65,20 51.6,19.55 51.6,18.1 54.4,18.05 "
       id="polygon99"
       style="fill:#b5a772" /><path
       d="m 52.9,71.05 h 0.149 c 0.467,0 0.816,-0.017 1.05,-0.05 0,0.733 -0.033,1.267 -0.1,1.6 L 53.749,73.85 53,73.9 Z"
       id="path101"
       inkscape:connector-curvature="0"
       style="fill:#b5a772" /><polygon
       points="54.8,71 55.95,72.7 56.05,74.3 55.4,74.15 54.5,71 "
       id="polygon103"
       style="fill:#b5a772" /><polygon
       points="52.85,70.15 52.85,69.15 53.5,69.1 53.95,69.75 54,70.15 "
       id="polygon105"
       style="fill:#b5a772" /><polygon
       points="53,74.45 53.65,74.4 53.45,75.7 53.45,75.75 53.05,75.75 53.05,74.85 "
       id="polygon107"
       style="fill:#b5a772" /><polygon
       points="56.15,75.75 55.85,75.75 55.45,74.3 56.05,74.3 "
       id="polygon109"
       style="fill:#b5a772" /><path
       d="m 2.3,20.85 -0.1,-1 4.45,-2.8 h 2.2 l -0.05,1.7 c -0.033,0.467 -0.05,0.767 -0.05,0.9 0.033,0.233 0.167,0.417 0.4,0.55 l 0.5,0.1 1.2,0.1 c 0.267,0.033 0.883,0.017 1.85,-0.05 0.566,0 1.4,-0.05 2.5,-0.15 1,-0.067 1.833,-0.067 2.5,0 l -0.25,0.15 c -0.3,0.2 -0.8,0.3 -1.5,0.3 h -1.5 c -1.167,-0.033 -2.017,0 -2.55,0.1 -0.9,0.067 -1.6,0.167 -2.1,0.3 -0.667,0.167 -1.017,0.483 -1.05,0.95 0.167,0.1 0.383,0.15 0.65,0.15 0.167,0 0.383,-0.017 0.65,-0.05 h 0.05 c 0.733,-0.033 1.833,-0.017 3.3,0.05 0.133,0 0.567,-0.017 1.3,-0.05 0.667,-0.067 1.15,-0.067 1.45,0 l 0.45,0.2 c -0.333,0.167 -0.8,0.267 -1.4,0.3 -0.667,0.033 -1.15,0.066 -1.45,0.1 -1.567,0.033 -2.733,0.1 -3.5,0.2 L 9.7,23 C 9.1,23.133 8.8,23.483 8.8,24.05 L 3.2,24.3 C 3.567,22.967 3.267,21.817 2.3,20.85 Z"
       id="path111"
       inkscape:connector-curvature="0"
       style="fill:#998e62" /><path
       d="m 51.55,17.25 h 0.05 l 2.7,0.15 0.101,0.65 -2.801,0.05 c -0.233,0.033 -0.583,0.05 -1.05,0.05 l -8.2,0.25 c 2.498,-0.133 4.414,-0.283 5.75,-0.45 0.601,-0.067 1.467,-0.233 2.601,-0.5 h 0.45 c 0.165,0 0.299,-0.067 0.399,-0.2 z"
       id="path113"
       inkscape:connector-curvature="0"
       style="fill:#998e62" /><path
       d="m 33.15,21.25 21.4,-1.45 -2.899,0.3 c -5,0.566 -9.95,0.967 -14.851,1.2 -1.8,0.067 -3.017,0.05 -3.65,-0.05 z"
       id="path115"
       inkscape:connector-curvature="0"
       style="fill:#998e62" /><path
       d="m 2.15,69.55 v -0.5 l 7.3,0.15 0.05,0.35 h 0.35 c 0.433,0 0.75,-0.017 0.95,-0.05 l 0.4,0.05 0.45,0.15 -1.75,0.8 -0.95,0.2 -0.1,0.649 c 0.4,0.034 0.783,0.034 1.15,0 0.767,-0.033 1.917,-0.149 3.45,-0.35 1.667,-0.066 2.917,-0.134 3.75,-0.2 h 0.2 c 0.467,0 1.167,-0.05 2.1,-0.149 0.867,-0.067 1.567,-0.067 2.1,0 l -0.35,0.199 c -0.333,0.134 -0.867,0.233 -1.6,0.301 -0.767,0.066 -1.267,0.116 -1.5,0.149 l -3.7,0.3 c -1.6,0.067 -2.8,0.233 -3.6,0.5 l -0.7,0.25 C 9.517,72.517 8.367,72.634 6.7,72.7 6.633,71.2 5.833,70.333 4.3,70.099 3.367,69.9 2.65,69.717 2.15,69.55 Z"
       id="path117"
       inkscape:connector-curvature="0"
       style="fill:#998e62" /><polygon
       points="9.05,73.3 9.05,72.8 11.55,72.85 22.75,72.35 "
       id="polygon119"
       style="fill:#998e62" /><polygon
       points="8.95,72.8 6.7,73.25 6.7,72.8 "
       id="polygon121"
       style="fill:#998e62" /><path
       d="m 49.05,71.75 -3.4,0.65 c -5.233,0.933 -9.517,1.433 -12.851,1.5 L 31.349,73.95 29.4,73.8 c -0.967,-0.133 -1.667,-0.366 -2.1,-0.7 0.267,-0.066 0.633,-0.116 1.1,-0.149 z"
       id="path123"
       inkscape:connector-curvature="0"
       style="fill:#998e62" /><path
       d="m 21.5,75.2 0.6,0.05 c -0.267,0.167 -0.617,0.316 -1.05,0.45 l -0.7,0.149 -0.7,0.25 L 6.5,76.2 5.45,75.6 C 6.183,75.034 6.6,74.25 6.7,73.25 L 8.95,72.8 h 0.1 v 0.5 c 0,0.967 0.167,1.55 0.5,1.75 0.133,0.101 0.267,0.15 0.4,0.15 h 0.45 l 0.2,0.05 2.5,0.25 c 0.4,0.033 2.167,0 5.3,-0.1 0.633,-0.034 1.667,-0.1 3.1,-0.2 z"
       id="path125"
       inkscape:connector-curvature="0"
       style="fill:#998e62" /><path
       d="m 54.1,71 h 0.4 l 0.9,3.15 -1.5,-0.301 H 53.75 L 54,72.6 c 0.066,-0.333 0.1,-0.867 0.1,-1.6 z"
       id="path127"
       inkscape:connector-curvature="0"
       style="fill:#998e62" /><polygon
       points="55.85,75.75 53.45,75.75 53.45,75.7 53.65,74.4 55.45,74.3 "
       id="polygon129"
       style="fill:#998e62" /><polygon
       points="53.9,68.9 53.95,68.9 54.25,70.1 54.3,70.2 54,70.15 "
       id="polygon131"
       style="fill:#998e62" /><path
       d="m 53,73.9 0.9,-0.051 2.149,0.45 -8.149,0.351 0.75,-0.051 2.1,-0.35 C 51.75,74.05 52.5,73.934 53,73.9 Z"
       id="path133"
       inkscape:connector-curvature="0"
       style="fill:#998e62" /><path
       d="m 45.3,71.2 c 0.533,-0.2 1.8,-0.384 3.8,-0.55 l 2.5,-0.351 c 0.267,-0.066 0.684,-0.116 1.25,-0.149 H 54 l 0.3,0.05 1.5,0.05 0.05,0.7 c -0.466,0 -0.816,0.017 -1.05,0.05 h -0.7 c -0.233,0.033 -0.583,0.05 -1.05,0.05 z"
       id="path135"
       inkscape:connector-curvature="0"
       style="fill:#998e62" /><path
       d="m 10.8,69.5 c -0.333,-0.033 -0.583,-0.134 -0.75,-0.3 l 4.85,0.1 -3.85,0.2 0.15,0.05 z"
       id="path137"
       inkscape:connector-curvature="0"
       style="fill:#eadca5" /><path
       d="M 24.75,69.45 24.9,69.4 h 7.05 C 40.483,69.299 47.8,69.133 53.9,68.9 l -0.05,0.15 -0.35,0.05 -3.35,0.1 c -0.467,0.033 -1.167,0.166 -2.101,0.399 C 47.15,69.832 46.433,69.95 45.9,69.95 43.066,70.016 40.983,70.033 39.65,70 L 37.6,69.95 c -2.533,0.033 -4.433,0.017 -5.7,-0.05 -1.333,-0.101 -3.35,-0.15 -6.05,-0.15 -1.367,0.1 -2.25,0.083 -2.65,-0.05 l 0.35,-0.101 z"
       id="path139"
       inkscape:connector-curvature="0"
       style="fill:#eadca5" /><path
       d="m 24.9,69.4 -0.15,0.05 -1.2,0.149 c -1.3,-0.033 -2.25,-0.033 -2.85,0 l -3.75,0.15 c -0.733,0.033 -1.467,0.033 -2.2,0 -0.233,-0.033 -0.75,-0.017 -1.55,0.05 -0.667,0.033 -1.184,0 -1.55,-0.1 l -0.6,-0.2 z"
       id="path141"
       inkscape:connector-curvature="0"
       style="fill:#eadca5" /><path
       d="m 32.3,17.25 c -1.667,0.167 -2.933,0.267 -3.8,0.3 L 18.5,18 c -2.267,0.067 -3.983,0.067 -5.15,0 C 12.017,18 11,17.967 10.3,17.9 9.7,17.834 9.267,17.75 9,17.65 H 8.95 L 9,17.55 c 0.133,-0.267 0.25,-0.433 0.35,-0.5 L 30.9,16.7 c 6.667,-0.1 14.417,-0.117 23.25,-0.05 -0.233,0.067 -1.101,0.1 -2.601,0.1 L 47.1,16.9 c -2.166,0.133 -3.8,0.233 -4.899,0.3 -1.967,0.1 -3.601,0.133 -4.9,0.1 l -1.25,-0.05 c -1.068,-0.067 -2.318,-0.067 -3.751,0 z"
       id="path143"
       inkscape:connector-curvature="0"
       style="fill:#eadca5" /><path
       d="m 1.7,16.7 6.05,-0.1 v 3.8 c 0,2.733 -0.05,4.667 -0.15,5.8 -0.1,1.033 -0.017,13.3 0.25,36.8 0.066,3 0.333,7.583 0.8,13.75 L 2,77.15 C 2.1,70.75 2.233,66.45 2.4,64.25 2.467,63.083 2.417,60.733 2.25,57.2 2.017,52.7 1.883,49.366 1.85,47.2 Z"
       id="path145"
       inkscape:connector-curvature="0"
       style="fill:#817651" /><path
       d="m 58.3,15.85 0.75,30.5 c 0.066,5.134 0.434,10.817 1.101,17.051 C 60.384,65.6 60.35,69.9 60.05,76.3 l -5.8,-0.25 C 53.783,69.884 53.533,65.3 53.5,62.3 53.267,40.234 52.983,27.967 52.65,25.5 52.516,24.367 52.417,22.433 52.349,19.7 l -0.1,-3.75 z"
       id="path147"
       inkscape:connector-curvature="0"
       style="fill:#94895e" /><path
       d="M 0.85,16.7 7.1,16.6 v 3.8 c 0,2.733 -0.05,4.667 -0.15,5.8 -0.1,1.033 -0.017,13.3 0.25,36.8 0.033,3 0.283,7.583 0.75,13.75 L 1.1,77.15 C 1.2,70.783 1.333,66.5 1.5,64.3 1.6,63.1 1.567,60.734 1.4,57.2 1.167,52.566 1.033,49.25 1,47.25 Z"
       id="path149"
       inkscape:connector-curvature="0"
       style="fill:#d0c183" /><path
       d="m 59.45,15.85 0.75,30.5 c 0.1,5.134 0.483,10.817 1.149,17.051 0.233,2.199 0.2,6.483 -0.1,12.85 l -6,-0.2 c -0.467,-6.166 -0.733,-10.75 -0.8,-13.75 -0.233,-21.933 -0.5,-34.2 -0.8,-36.8 -0.134,-1.133 -0.25,-3.067 -0.351,-5.8 l -0.1,-3.75 z"
       id="path151"
       inkscape:connector-curvature="0"
       style="fill:#d0c183;filter:url(#filter4962)" /><path
       d="m 58.2,17.15 c 0.133,-0.033 0.3,-0.183 0.5,-0.45 0.399,6.133 0.616,10.75 0.649,13.85 0.034,5.267 0.2,14.917 0.5,28.95 L 59.9,65.3 59.325,52.45 c 0.009,0.766 0.017,1.716 0.024,2.85 0.009,0.56 0.009,1.102 0,1.625 C 59.297,54.188 59.214,50.446 59.099,45.7 58.866,37.133 58.733,32.016 58.7,30.35 Z"
       id="path153"
       inkscape:connector-curvature="0"
       style="fill:#bbab72" /><path
       d="m 58.55,64.3 c 0.134,0.934 0.2,1.584 0.2,1.95 0.033,-0.2 0.116,-0.45 0.25,-0.75 0.096,-0.239 0.154,-0.438 0.175,-0.6 -0.053,0.598 -0.228,2.398 -0.524,5.399 -0.2,2.267 -0.334,4.217 -0.4,5.851 H 57.7 c 0.133,-3.367 0.416,-7.317 0.85,-11.85 z"
       id="path155"
       inkscape:connector-curvature="0"
       style="fill:#bbab72" /><path
       d="m 55.05,16.75 h 0.101 c 0,0.467 -0.117,2.783 -0.351,6.95 -0.2,3.433 -0.3,7.05 -0.3,10.85 -0.2,1.2 -0.3,2.067 -0.3,2.6 -0.066,-1.9 -0.117,-3.333 -0.15,-4.3 -0.033,-0.9 -0.017,-2.017 0.05,-3.35 0.101,-1.467 0.167,-2.567 0.2,-3.3 0.101,-1.167 0.084,-2.25 -0.05,-3.25 l 0.2,-6.25 h 0.3 l 0.1,2.15 z"
       id="path157"
       inkscape:connector-curvature="0"
       style="fill:#bbab72" /><path
       d="M 54.95,62.65 54.8,55.2 c 0.101,-2.066 0.267,-3.934 0.5,-5.601 0,4.767 -0.116,9.118 -0.35,13.051 z"
       id="path159"
       inkscape:connector-curvature="0"
       style="fill:#bbab72" /><path
       d="m 60.2,66.8 c -0.101,0.101 -0.233,0.334 -0.4,0.7 0.601,-3.866 0.917,-6.684 0.95,-8.45 l 0.1,-7.1 0.45,11 -0.2,1.399 z"
       id="path161"
       inkscape:connector-curvature="0"
       style="fill:#bbab72" /><path
       d="M 60.5,65.3 C 60.3,62.567 60.233,58 60.3,51.6 l 0.4,16.851 z"
       id="path163"
       inkscape:connector-curvature="0"
       style="fill:#bbab72" /><path
       d="m 3.6,17.55 0.15,0.05 c 0,0.033 0.05,0.566 0.15,1.6 l -0.05,16.75 -0.3,-8.6 c 0.067,-0.633 0.067,-1.283 0,-1.95 v -0.15 c 0.067,-3.4 0.083,-5.967 0.05,-7.7 z"
       id="path165"
       inkscape:connector-curvature="0"
       style="fill:#bbab72" /><path
       d="m 3.55,62.85 c 0.13,2.072 0.263,2.906 0.4,2.5 C 3.712,63.858 3.553,62.575 3.475,61.5 3.493,61.969 3.518,62.419 3.55,62.85 Z M 3.2,17.55 h 0.35 v 9.8 c -0.033,0.9 -0.133,2.267 -0.3,4.1 C 3.083,34.25 3.1,38.5 3.3,44.2 l 0.3,6.6 c 0,0.9 0.017,1.384 0.05,1.45 0.167,0.434 0.317,0.384 0.45,-0.15 0.1,1.7 0.2,3.467 0.3,5.301 0.033,1.466 -0.05,3.533 -0.25,6.199 -0.07,0.952 -0.137,1.535 -0.2,1.75 0.071,0.511 0.154,1.045 0.25,1.601 0.533,3.066 0.816,4.934 0.85,5.6 L 5.2,75.65 5,73.2 C 5,72.533 4.967,72.033 4.9,71.7 4.7,71.3 4.567,70.967 4.5,70.7 v -1 L 4.25,68.2 C 3.883,67.3 3.667,66.616 3.6,66.15 c 0.033,0.333 0.117,0.833 0.25,1.5 0.066,0.866 0.133,1.399 0.2,1.6 0.467,1.634 0.717,2.95 0.75,3.95 0.1,2.033 0.117,3.283 0.05,3.75 H 4.6 C 4.533,75.217 4.15,72.266 3.45,68.099 2.817,64.366 2.55,61.133 2.65,58.4 2.75,55.533 2.933,55.25 3.2,57.549 l 0.2,1.7 c 0.067,0.167 0.067,-0.533 0,-2.1 C 3.167,52.416 2.983,48.582 2.85,45.649 2.65,40.316 2.633,34.715 2.8,28.849 Z"
       id="path167"
       inkscape:connector-curvature="0"
       style="fill:#bbab72" /><path
       d="M 1.9,75.8 C 1.834,75.134 1.817,74.616 1.85,74.25 L 1.95,72.3 2.3,77.1 H 1.8 Z"
       id="path169"
       inkscape:connector-curvature="0"
       style="fill:#bbab72" /><path
       d="M 1.75,65.6 C 1.717,63.901 1.683,62.634 1.65,61.8 1.617,60.333 1.667,59.1 1.8,58.1 c 0.167,-1.399 0.25,-3.066 0.25,-5 0.167,2.434 0.25,4.334 0.25,5.7 L 2.2,63.15 C 1.933,64.217 1.783,65.033 1.75,65.6 Z"
       id="path171"
       inkscape:connector-curvature="0"
       style="fill:#bbab72" /><path
       d="m 6.05,60.4 c 0.227,2.521 0.385,3.305 0.475,2.35 C 6.313,61.711 6.138,60.777 6,59.95 6.019,60.099 6.036,60.249 6.05,60.4 Z M 6.7,17.35 7.1,17.3 C 7.2,21 7.15,23.967 6.95,26.2 6.883,27.433 6.867,30.016 6.9,33.95 6.7,36.817 6.6,39.067 6.6,40.7 v 20.6 c -0.017,0.665 -0.042,1.148 -0.075,1.45 0.01,0.035 0.019,0.068 0.025,0.1 0.567,2.733 0.9,4.934 1,6.601 l 0.4,7.3 -0.5,0.05 v -1.55 C 7.383,71.218 6.933,67.351 6.1,63.651 5.797,62.294 5.547,61.086 5.35,60.026 V 69.3 C 5.151,71.555 4.968,67.147 4.8,56.075 c 0.043,0.91 0.227,2.228 0.55,3.95 V 48.25 l 0.15,3.7 C 5.497,51.623 5.547,51.19 5.65,50.65 5.817,49.884 5.9,49.366 5.9,49.1 5.926,48.579 5.951,48.305 5.975,48.276 5.963,48.187 5.955,48.095 5.95,48 5.717,45.134 5.6,42.783 5.6,40.95 5.733,40.583 5.833,40.133 5.9,39.6 6,38.7 6.05,38.233 6.05,38.2 6.317,37.3 6.484,36.617 6.55,36.15 6.65,35.617 6.667,34.767 6.6,33.6 6.5,31.8 6.45,29.967 6.45,28.1 Z"
       id="path173"
       inkscape:connector-curvature="0"
       style="fill:#bbab72" /><path
       d="m 57.1,21 c -0.066,-0.733 -0.066,-1.833 0,-3.3 0.034,4.5 0.017,13.933 -0.05,28.3 -0.021,5.805 -0.021,10.771 0,14.9 C 57,58.927 56.95,58.894 56.9,60.8 l -0.95,13.1 -0.1,-1.1 c 0.6,-11.1 0.85,-18.5 0.75,-22.2 -0.066,-2.767 -0.133,-1.833 -0.199,2.801 -0.101,4.199 -0.15,5.483 -0.15,3.85 0.167,-11.8 0.233,-22 0.2,-30.6 l -0.05,-10.3 0.3,-0.05 C 56.767,18.133 56.9,19.7 57.1,21 Z"
       id="path175"
       inkscape:connector-curvature="0"
       style="fill:#bbab72" /><path
       d="m 61.25,76.25 h -0.4 l 0.601,-6.55 c -0.034,2.234 -0.101,4.416 -0.201,6.55 z"
       id="path177"
       inkscape:connector-curvature="0"
       style="fill:#bbab72" /><path
       d="m 3.55,27.35 0.4,10.9 c 0.3,6.3 0.4,10.483 0.3,12.55 0,0.467 -0.05,0.9 -0.15,1.3 C 3.967,52.634 3.817,52.684 3.65,52.25 3.617,52.184 3.6,51.7 3.6,50.8 L 3.3,44.2 C 3.1,38.5 3.084,34.25 3.25,31.45 c 0.167,-1.833 0.267,-3.2 0.3,-4.1 z"
       id="path179"
       inkscape:connector-curvature="0"
       style="fill:#a09262" /><path
       d="M 6.4,26.775 6.45,28.1 c 0,1.867 0.05,3.7 0.15,5.5 0.066,1.167 0.05,2.017 -0.05,2.55 -0.066,0.467 -0.233,1.15 -0.5,2.05 0,0.033 -0.05,0.5 -0.15,1.4 -0.066,0.533 -0.167,0.983 -0.3,1.35 l -0.1,0.3 c -0.067,-2.2 -0.033,-4.083 0.1,-5.65 0.033,-0.233 0.117,-0.583 0.25,-1.05 0.133,-0.466 0.2,-0.833 0.2,-1.1 l 0.4,-3.4 z"
       id="path181"
       inkscape:connector-curvature="0"
       style="fill:#a09262" /><path
       d="m 5.35,48.25 0.15,3.7 C 5.497,51.623 5.547,51.19 5.65,50.65 5.817,49.884 5.9,49.366 5.9,49.1 6,47.066 6.033,48.816 6,54.35 5.967,59.684 5.9,61.434 5.8,59.6 L 5.45,52.7 5.4,56.85 Z"
       id="path183"
       inkscape:connector-curvature="0"
       style="fill:#a09262" /><path
       d="M 4.05,69.25 C 3.984,69.05 3.917,68.517 3.85,67.65 3.717,66.983 3.633,66.483 3.6,66.15 c 0.066,0.466 0.283,1.149 0.65,2.05 l 0.25,1.5 v 1 c 0.067,0.267 0.2,0.6 0.4,1 0.067,0.333 0.1,0.833 0.1,1.5 l 0.3,3.7 -0.45,0.05 C 4.916,76.483 4.9,75.233 4.8,73.2 4.767,72.2 4.517,70.884 4.05,69.25 Z"
       id="path185"
       inkscape:connector-curvature="0"
       style="fill:#a09262" /><path
       d="m 0.85,16.7 h 1.8 L 2.7,16.55 3.7,16.5 4,16.45 3.95,16.65 7.1,16.6 v 0.7 L 6.7,17.35 C 6.6,17.35 6.217,17.283 5.55,17.15 5.417,17.35 5.367,17.667 5.4,18.1 5.433,18.533 5.367,18.85 5.2,19.05 5.133,18.783 5.083,18.6 5.05,18.5 4.95,18.267 4.834,18.117 4.7,18.05 4.633,18.783 4.633,19.9 4.7,21.4 4.666,21.767 4.617,22.367 4.55,23.2 4.45,23.967 4.3,24.55 4.1,24.95 3.967,24.217 3.9,23.266 3.9,22.1 3.933,20.833 3.933,19.867 3.9,19.2 3.8,18.166 3.75,17.633 3.75,17.6 L 3.6,17.55 H 3.2 C 2.567,17.55 2,17.6 1.5,17.7 1.433,18.266 1.483,19.583 1.65,21.65 L 1.9,27.5 C 2.2,34.933 2.35,38.667 2.35,38.7 2.083,37.6 1.8,36.85 1.5,36.45 c -0.133,0.433 -0.167,1.033 -0.1,1.8 0.033,0.4 0.083,1 0.15,1.8 l 0.5,13.05 c 0,0.994 -0.025,1.919 -0.075,2.775 0.034,3.355 0.059,6.006 0.075,7.95 0.042,-0.215 0.091,-0.44 0.15,-0.675 0.2,-0.867 0.316,-1.517 0.35,-1.95 0,0.2 -0.15,1.483 -0.45,3.85 l -0.05,1.2 c 0.067,1.693 0.1,2.56 0.1,2.6 0,0.767 -0.066,1.917 -0.2,3.45 l -0.1,1.95 C 1.817,74.616 1.833,75.134 1.9,75.8 L 1.8,77.1 1.1,77.15 C 1.2,70.783 1.333,66.5 1.5,64.3 1.6,63.1 1.567,60.734 1.4,57.2 1.167,52.566 1.033,49.25 1,47.25 Z M 1.675,59.325 C 1.638,60.061 1.629,60.886 1.65,61.8 c 0.033,0.834 0.067,2.101 0.1,3.8 0.021,-0.358 0.088,-0.816 0.2,-1.375 C 1.921,63.529 1.887,62.753 1.85,61.901 1.783,60.967 1.733,60.267 1.7,59.8 1.694,59.638 1.686,59.479 1.675,59.325 Z M 2.05,66.25 C 2.042,67.688 2.026,68.139 2,67.6 c 0.026,0.539 0.042,0.088 0.05,-1.35 z"
       id="path187"
       inkscape:connector-curvature="0"
       style="fill:#eadca5" /><path
       d="m 56.7,16.3 c 0.2,0.067 0.35,0.167 0.45,0.3 l -0.05,1.1 c -0.066,1.466 -0.066,2.566 0,3.3 -0.2,-1.3 -0.333,-2.867 -0.4,-4.7 z"
       id="path189"
       inkscape:connector-curvature="0"
       style="fill:#a09262" /><polygon
       points="55.05,16.75 54.85,18.85 54.75,16.7 "
       id="polygon191"
       style="fill:#a09262" /><path
       d="m 59.675,60.55 c 0.265,-0.985 0.423,0.015 0.476,3 0.066,6.134 -0.017,6.717 -0.25,1.75 l -0.226,-4.75 c -0.064,0.27 -0.139,0.687 -0.225,1.25 l -0.15,0.8 c -0.066,0.334 -0.083,0.851 -0.05,1.551 v 0.6 H 59.2 c 0,0.167 -0.066,0.417 -0.2,0.75 -0.134,0.3 -0.217,0.55 -0.25,0.75 0,-0.366 -0.066,-1.017 -0.2,-1.95 -0.133,-1.1 -0.066,-1.95 0.2,-2.55 l 0.5,-11.05 z"
       id="path193"
       inkscape:connector-curvature="0"
       style="fill:#a09262" /><path
       d="M 61.4,64.3 59.85,71 c -0.133,0.6 -0.166,1.3 -0.1,2.1 l 0.15,3.1 -1.15,-0.05 0.1,-2.351 c 0.067,-1.133 0.301,-2.8 0.7,-5 0.066,-0.566 0.15,-1 0.25,-1.3 0.167,-0.366 0.3,-0.6 0.4,-0.7 l 1.149,-3.2 z"
       id="path195"
       inkscape:connector-curvature="0"
       style="fill:#a09262" /><path
       d="m 56.6,73.45 0.1,2.65 h -0.55 l -0.2,-2.199 0.899,-12.25 C 56.618,67.712 56.534,71.646 56.6,73.45 Z"
       id="path197"
       inkscape:connector-curvature="0"
       style="fill:#a09262" /><path
       d="m 54.75,16.7 h -0.3 c -0.367,0.1 -0.601,0.367 -0.7,0.8 -0.233,1.033 -0.116,2.567 0.35,4.6 l 0.15,0.85 c 0.134,1 0.15,2.083 0.05,3.25 -0.033,0.733 -0.1,1.833 -0.2,3.3 -0.066,1.333 -0.083,2.45 -0.05,3.35 0.033,0.967 0.084,2.4 0.15,4.3 0,-0.533 0.1,-1.4 0.3,-2.6 0.2,-0.966 0.316,-1.733 0.35,-2.3 0,1.133 0.067,2.833 0.2,5.1 -0.164,4.22 -0.197,9.395 -0.1,15.525 0.091,-1.165 0.207,-2.257 0.35,-3.275 l 0.05,-0.8 0.1,21.2 c -0.256,-6.357 -0.423,-12.066 -0.5,-17.125 -0.062,0.746 -0.111,1.521 -0.15,2.325 -0.066,-2.667 -0.133,-2.101 -0.2,1.7 l -0.15,5.4 C 54.217,40.367 53.95,28.1 53.65,25.5 53.516,24.367 53.4,22.433 53.299,19.7 l -0.1,-3.75 2.5,-0.05 v -0.1 l 1.35,-0.05 v 0.1 h 2.4 l 0.05,0.45 -0.3,0.1 c -0.134,0 -0.3,0.1 -0.5,0.3 -0.2,0.267 -0.367,0.417 -0.5,0.45 -0.134,0.067 -0.267,0.033 -0.4,-0.1 -0.063,1 -0.096,1.608 -0.1,1.825 -0.004,-1.088 -0.188,-1.847 -0.55,-2.275 -0.101,-0.133 -0.25,-0.233 -0.45,-0.3 l -0.3,0.05 H 56.35 c -0.366,0.1 -0.533,0.35 -0.5,0.75 0.034,0.467 0,0.75 -0.1,0.85 -0.033,-0.367 -0.066,-0.617 -0.1,-0.75 -0.034,-0.2 -0.2,-0.35 -0.5,-0.45 h -0.1 z"
       id="path199"
       inkscape:connector-curvature="0"
       style="fill:#eadca5" /><path
       d="m 54.95,62.65 c 0.066,0.267 0.133,1.017 0.2,2.25 0.033,0.8 0.133,1.983 0.3,3.55 0.133,1.934 0.267,3.383 0.399,4.35 l 0.301,3.3 -0.9,-0.05 z"
       id="path201"
       inkscape:connector-curvature="0"
       style="fill:#eadca5" /><polygon
       points="5.45,21.5 3.75,21.3 4.9,21 "
       id="polygon203"
       style="display:none;fill:#76767a" /><path
       d="m 5.75,22.3 c 0.1,-0.066 0.6,0.15 1.5,0.65 L 7.7,23 C 7.166,23.067 6.8,23.05 6.6,22.95 6.233,22.783 5.95,22.567 5.75,22.3 Z"
       id="path205"
       inkscape:connector-curvature="0"
       style="display:none;fill:#d9d9e0" /><path
       d="m 4.35,18.35 c 1.433,0.5 2.283,1.3 2.55,2.4 0.1,0.367 0.1,1.117 0,2.25 -0.066,0.567 -0.517,1.1 -1.35,1.6 -0.9,0.533 -1.8,0.683 -2.7,0.45 C 0.95,24.55 0,23.383 0,21.55 c -0.033,-1 0.35,-1.883 1.15,-2.65 0.9,-0.833 1.967,-1.017 3.2,-0.55 z"
       id="path207"
       inkscape:connector-curvature="0"
       style="display:none;fill:#d9d9e0" /><path
       d="m 4.5,18.7 c 1.433,0.5 2.283,1.333 2.55,2.5 0.1,0.4 0.083,1.183 -0.05,2.35 -0.067,0.534 -0.433,1.05 -1.1,1.55 -0.767,0.5 -1.533,0.65 -2.3,0.45 -1.8,-0.466 -2.684,-1.4 -2.65,-2.8 0,-1 0.316,-1.967 0.95,-2.9 0.733,-1.133 1.6,-1.517 2.6,-1.15 z"
       id="path209"
       inkscape:connector-curvature="0"
       style="display:none;fill:#7e7e82" /><path
       d="M 4,18.75 C 5.167,19.183 5.867,19.9 6.1,20.9 6.167,21.3 6.15,22 6.05,23 5.984,23.533 5.617,24.05 4.95,24.55 4.183,25.05 3.433,25.2 2.7,25 1.133,24.633 0.35,23.567 0.35,21.8 c 0,-0.933 0.333,-1.75 1,-2.45 0.767,-0.8 1.65,-1 2.65,-0.6 z"
       id="path211"
       inkscape:connector-curvature="0"
       style="display:none;fill:#ababb0" /><path
       d="m 0.35,21.8 c 0,-0.3 0.05,-0.6 0.15,-0.9 l 0.55,0.2 c -0.066,0.333 0.15,0.6 0.65,0.8 0.5,0.167 0.95,0.25 1.35,0.25 0.367,0.067 0.633,0.083 0.8,0.05 0.167,-0.034 0.367,-0.1 0.6,-0.2 0.1,0.1 0.1,0.233 0,0.4 -0.1,0.2 -0.15,0.333 -0.15,0.4 0.267,0.034 0.5,-0.167 0.7,-0.6 0.2,-0.467 0.367,-0.717 0.5,-0.75 0.1,1.1 -0.233,1.883 -1,2.35 -0.8,0.534 -1.6,0.75 -2.4,0.65 L 1.3,24.3 C 0.667,23.7 0.35,22.867 0.35,21.8 Z"
       id="path213"
       inkscape:connector-curvature="0"
       style="display:none;fill:#9c9ca1" /><path
       d="m 1.7,20.15 c 0,-0.433 0.133,-0.75 0.4,-0.95 0.4,-0.3 0.733,-0.4 1,-0.3 h 0.3 c 0.467,0.067 0.8,0.4 1,1 C 4.633,20.5 4.5,20.817 4,20.85 3.833,20.883 3.633,20.833 3.4,20.7 3.133,20.533 2.95,20.433 2.85,20.4 2.35,20.333 1.967,20.25 1.7,20.15 Z"
       id="path215"
       inkscape:connector-curvature="0"
       style="display:none;fill:#bfbfc4" /><path
       d="m 60.6,17.6 c -1.366,1.467 -2.316,2.316 -2.85,2.55 l -1.4,0.45 c -0.3,-0.167 -0.5,-0.5 -0.6,-1 l -0.15,-0.7 1.15,-0.3 c 0.833,-0.367 1.517,-0.867 2.05,-1.5 z"
       id="path217"
       inkscape:connector-curvature="0"
       style="display:none;fill:#97979c" /><polygon
       points="59.95,17.4 58.25,17.65 58.8,17.1 "
       id="polygon219"
       style="display:none;fill:#76767a" /><path
       d="m 57.85,17.95 0.15,-0.1 0.15,0.75 c 0,0.267 -0.034,0.467 -0.101,0.6 L 57.9,19.5 c -0.2,0.267 -0.784,0.567 -1.75,0.9 -0.167,-0.167 -0.301,-0.433 -0.4,-0.8 l -0.15,-0.7 0.25,-0.05 0.051,0.5 c 0.166,0.267 0.466,0.367 0.899,0.3 0.367,-0.066 0.684,-0.217 0.95,-0.45 0.2,-0.133 0.267,-0.4 0.2,-0.8 z"
       id="path221"
       inkscape:connector-curvature="0"
       style="display:none;fill:#76767a" /><path
       d="m 57.9,19.5 0.149,-0.3 c 0.066,-0.133 0.101,-0.333 0.101,-0.6 L 58,17.85 l 0.25,-0.2 1.7,-0.25 0.649,0.2 c -1.366,1.467 -2.316,2.316 -2.85,2.55 l -1.4,0.45 -0.199,-0.2 c 0.966,-0.333 1.55,-0.633 1.75,-0.9 z"
       id="path223"
       inkscape:connector-curvature="0"
       style="display:none;fill:#5b5b5e" /><path
       d="m 57.95,18.4 c -0.2,0.3 -0.483,0.533 -0.851,0.7 -0.233,0.1 -0.6,0.1 -1.1,0 h 0.45 c 0.167,-0.067 0.667,-0.3 1.501,-0.7 z"
       id="path225"
       inkscape:connector-curvature="0"
       style="display:none;fill:#d9d9e0" /><path
       d="m 59.3,14.5 c 1.267,-0.467 2.351,-0.283 3.25,0.55 0.767,0.733 1.15,1.6 1.15,2.6 -0.066,1.9 -1.017,3.083 -2.851,3.55 -0.933,0.233 -1.85,0.083 -2.75,-0.45 -0.8,-0.5 -1.233,-1.033 -1.3,-1.6 C 56.633,18.117 56.615,17.367 56.749,16.9 57.05,15.8 57.9,15 59.3,14.5 Z"
       id="path227"
       inkscape:connector-curvature="0"
       style="display:none;fill:#d9d9e0" /><path
       d="m 59.2,14.85 c 1,-0.367 1.866,0.017 2.6,1.15 0.634,0.933 0.95,1.9 0.95,2.9 0,1.434 -0.9,2.367 -2.7,2.8 -0.733,0.2 -1.483,0.05 -2.25,-0.45 -0.666,-0.5 -1.033,-1.017 -1.1,-1.55 -0.134,-1.167 -0.15,-1.95 -0.05,-2.35 0.267,-1.167 1.117,-2 2.55,-2.5 z"
       id="path229"
       inkscape:connector-curvature="0"
       style="display:none;fill:#7e7e82" /><path
       d="m 59.7,14.9 c 1,-0.4 1.883,-0.2 2.649,0.6 0.667,0.7 1,1.517 1,2.45 0,1.7 -0.783,2.767 -2.35,3.2 -0.733,0.2 -1.483,0.033 -2.25,-0.5 -0.667,-0.5 -1.033,-1 -1.1,-1.5 -0.101,-1 -0.101,-1.7 0,-2.1 0.201,-1 0.884,-1.717 2.051,-2.15 z"
       id="path231"
       inkscape:connector-curvature="0"
       style="display:none;fill:#ababb0" /><path
       d="m 58.2,17.6 c 0.133,0.033 0.316,0.283 0.55,0.75 0.167,0.4 0.384,0.583 0.65,0.55 0,-0.033 -0.051,-0.167 -0.15,-0.4 -0.1,-0.133 -0.1,-0.267 0,-0.4 0.134,0.033 0.333,0.117 0.6,0.25 0.167,0.033 0.434,0.017 0.801,-0.05 0.6,-0.066 1.05,-0.15 1.35,-0.25 0.5,-0.2 0.7,-0.466 0.6,-0.8 0.167,-0.067 0.367,-0.133 0.601,-0.2 l 0.149,0.9 c 0,1.066 -0.316,1.9 -0.949,2.5 L 61.6,20.6 C 60.901,20.7 60.1,20.483 59.201,19.95 58.434,19.483 58.1,18.7 58.2,17.6 Z"
       id="path233"
       inkscape:connector-curvature="0"
       style="display:none;fill:#9c9ca1" /><path
       d="m 62,16.3 c -0.533,0.067 -0.934,0.133 -1.2,0.2 -0.467,0.333 -0.833,0.5 -1.1,0.5 -0.5,-0.033 -0.634,-0.35 -0.4,-0.95 0.2,-0.633 0.533,-0.983 1,-1.05 l 0.3,0.05 c 0.267,-0.1 0.601,0 1,0.3 0.266,0.167 0.4,0.483 0.4,0.95 z"
       id="path235"
       inkscape:connector-curvature="0"
       style="display:none;fill:#bfbfc4" /><path
       d="m 55.25,19.6 c 0.066,-0.467 0.217,-0.717 0.45,-0.75 0.033,0.1 0.017,0.3 -0.05,0.6 -0.067,0.233 -0.051,0.433 0.05,0.6 0.166,0.267 0.416,0.434 0.75,0.5 0.3,0.034 0.583,-0.033 0.85,-0.2 l 0.45,0.05 -0.05,0.45 c -0.066,0.1 -0.184,0.25 -0.351,0.45 -0.033,0.2 0.217,0.383 0.75,0.55 -0.366,0.167 -0.633,0.3 -0.8,0.4 -0.366,0.167 -0.483,0.383 -0.35,0.65 -0.2,-0.2 -0.351,-0.483 -0.45,-0.85 -0.1,-0.267 -0.2,-0.4 -0.3,-0.4 -0.2,0.1 -0.4,0.167 -0.601,0.2 0.134,-0.233 0.15,-0.434 0.051,-0.6 -0.233,-0.267 -0.367,-0.483 -0.4,-0.65 -0.065,-0.267 -0.065,-0.6 10e-4,-1 z"
       id="path237"
       inkscape:connector-curvature="0"
       style="display:none;fill:#6c6342" /></g></svg>